<svg class="hidden md:block" fill="none" xmlns="http://www.w3.org/2000/svg" viewBox="0 0 320 320">
  <g clip-path="url(#clip0)">
    <path d="M274.097 178.667c19.565 0 35.425 15.86 35.425 35.43 0 19.565-15.86 35.43-35.425 35.43-19.57 0-35.43-15.865-35.43-35.43 0-19.565 15.86-35.43 35.43-35.43z" fill="#F3F6FF"/>
    <path d="M138 62.16c49.06 0 88.83 39.77 88.83 88.825 0 49.06-39.77 88.83-88.83 88.83-49.06 0-88.825-39.77-88.825-88.83C49.175 101.93 88.94 62.16 138 62.16z" fill="#EAF0FF"/>
    <path d="M68.15 170.925c1.815-.82 22.87 22.665 20.79 24.345-2.08 1.68-13.085 11.815-17.22 14.39-8.27-8.995-14.015-19.33-16.655-27.555 2.5-2.31 11.27-10.36 13.085-11.18z" fill="#fff"/>
    <path d="M54.225 180.06c2.5-2.305 10.96-10.11 12.78-10.93 1.815-.82 23.02 24.4 20.94 26.08-2.08 1.68-13.115 12.45-16.375 14.515" stroke="#1B3C87" stroke-width="2"/>
    <path d="M87.505 198.27c-4.535 1.32-24.06-25.425-22.645-28.95 1.41-3.52 30.17-35.895 44.74-13.74 12.06 18.345-17.565 41.365-22.095 42.69z" fill="#E46E4F"/>
    <path d="M78.685 152.105c9.575-6.645 21.495-10.475 29.32 1.425 12.06 18.345-17.56 41.365-22.095 42.69-4.535 1.32-24.06-25.43-22.645-28.95.275-.68 1.57-2.445 3.595-4.685" stroke="#1B3C87" stroke-width="2"/>
    <path d="M100.29 147.67c-10.7 8.315-17.815 59.71-14.745 75.005 14.695 10.77 32.83 17.14 52.45 17.14 15.49 0 30.05-3.97 42.73-10.94 2.245-19.1-3.29-73.69-12.04-80.335-7.46-5.66-21.265-8.44-34.85-8.52-13.585-.085-26.955 2.53-33.545 7.65z" fill="#E46E4F"/>
    <path d="M88.195 169.575c2.575-11.3 6.02-20.725 10.105-23.9 13.175-10.235 53.475-10.455 68.395.875 9.28 7.045 15.355 68.175 11.545 83.42m-94.645-9.035c-.615-3.895-.655-10.205-.19-17.575" stroke="#1B3C87" stroke-width="2"/>
    <path d="M22.9.57l40.58 15.32-17.415 46.125L5.49 46.69 22.9.57zm181.99 240.46l8.62 78.4 55.5-94.565-64.12 16.165z" stroke="#B6C6FC" stroke-width="2"/>
    <path d="M45.53 41.93c13.165 0 23.84 10.675 23.84 23.845 0 13.17-10.675 23.845-23.845 23.845-13.165 0-23.84-10.675-23.84-23.845 0-13.17 10.675-23.845 23.845-23.845z" stroke="#B6C6FC" stroke-width="2"/>
    <path d="M174.52 201.75c-1.47-1.675 26.425-24.81 28.14-22.79 1.72 2.025 8.595 11.65 11.805 16.945-2.58 4.645-16.83 22.635-23.535 27.21-1.895-1.895-14.94-19.69-16.41-21.365z" fill="#fff"/>
    <path d="M191.565 221.705c-1.585-2.16-15.725-21.64-17.195-23.32-1.475-1.675 26.425-24.805 28.14-22.785 1.72 2.025 9.935 13.27 12.765 18.775" stroke="#1B3C87" stroke-width="2"/>
    <path d="M208.955 179.24c-.085 9.895-30.315 27.875-35.35 25.28-5.55-2.86-34.27-43.885-12.655-58.71 14.09-9.67 48.09 23.53 48.005 33.43z" fill="#E46E4F"/>
    <path d="M152.46 167.415c-1.895-9.205-.68-18.03 7.165-23.41 14.09-9.665 48.09 23.535 48.005 33.435-.085 9.9-30.315 27.88-35.355 25.28-1.61-.83-5.175-4.875-8.895-10.565" stroke="#1B3C87" stroke-width="2"/>
    <path d="M138 62.015c49.06 0 88.83 39.765 88.83 88.825s-39.77 88.83-88.83 88.83c-49.06 0-88.825-39.77-88.825-88.83 0-49.055 39.765-88.825 88.825-88.825z" stroke="#98C6D6" stroke-width="2"/>
    <path d="M227.26 153.695c6.045 1.275 10.88 4.375 10.79 6.93-.085 2.55-5.06 3.585-11.11 2.31-6.045-1.275-10.875-4.375-10.79-6.925.085-2.55 5.06-3.59 11.11-2.315zm-.235-10.09c6.05 1.275 10.88 4.38 10.795 6.93-.09 2.55-5.06 3.585-11.11 2.315-6.05-1.275-10.88-4.38-10.79-6.93.085-2.55 5.06-3.585 11.105-2.315z" fill="#fff"/>
    <path d="M218.405 142.22c1.985-.37 4.645-.29 7.555.32 6.05 1.275 10.88 4.38 10.795 6.93-.06 1.72-2.35 2.755-5.69 2.85m-14.15.49c1.99-.865 5.415-.995 9.275-.18 6.05 1.275 10.88 4.375 10.795 6.93-.065 1.86-2.725 2.91-6.505 2.855m-12.325-.515c1.78-.145 3.935.005 6.24.495 6.05 1.27 10.88 4.375 10.795 6.925-.055 1.595-2.02 2.595-4.96 2.815" stroke="#1B3C87" stroke-width="2"/>
    <path d="M48.755 147.31c6.045 1.275 10.88 4.375 10.79 6.93-.085 2.55-5.06 3.585-11.11 2.31-6.045-1.275-10.88-4.375-10.79-6.925.085-2.55 5.06-3.59 11.11-2.315zm1.795-9.76c6.045 1.275 10.88 4.375 10.79 6.93-.085 2.555-5.06 3.585-11.11 2.31-6.045-1.275-10.88-4.375-10.79-6.93.085-2.55 5.06-3.585 11.11-2.31zm-.235-10.09c6.05 1.275 10.88 4.375 10.795 6.93-.09 2.55-5.06 3.585-11.11 2.31-6.045-1.275-10.88-4.375-10.79-6.925.085-2.555 5.06-3.59 11.105-2.315z" fill="#fff"/>
    <path d="M40.46 132.185c-1.86-1.225-2.985-2.6-2.94-3.84.085-2.555 5.06-3.59 11.105-2.315 2.71.57 5.175 1.51 7.065 2.595m-12.67 14.93c-3.205-1.485-5.33-3.425-5.27-5.125.085-2.55 5.06-3.585 11.11-2.31 2.52.53 4.825 1.38 6.655 2.37m-10.81 16.12c-5.06-1.475-8.83-4.16-8.75-6.415.085-2.555 5.06-3.59 11.11-2.315 3.535.745 6.655 2.115 8.62 3.635" stroke="#1B3C87" stroke-width="2"/>
    <path d="M146.23 151.265c-2.345 1.77-16.02 3.05-19.785 0 .135-5.8.265-17.4-.265-20.365s21.825-13.675 21.245-10.4c-.575 3.275-3.225 16.465-1.195 30.765z" fill="#fff"/>
    <path d="M124.91 149.36c.135-5.8.265-17.395-.265-20.36s21.82-13.675 21.245-10.4c-.575 3.27-3.23 16.465-1.195 30.76-1.06.8-4.445 1.505-8.18 1.75" stroke="#1B3C87" stroke-width="2"/>
    <path d="M129.53 74.555c13.48 1.08 23.355 14.895 22.05 30.865-1.3 15.97-13.285 28.045-26.765 26.965-13.48-1.075-23.355-14.895-22.055-30.865 1.305-15.97 13.29-28.04 26.77-26.965z" fill="#fff"/>
    <path d="M137.705 126.91c-4.17 2.84-9.045 4.31-14.135 3.9-6.275-.5-11.775-3.765-15.72-8.725m-5.24-10.4c-1.02-3.645-1.425-7.62-1.09-11.735 1.3-15.97 13.285-28.04 26.765-26.965C141.77 74.06 151.64 87.88 150.34 103.85c-.395 4.81-1.755 9.265-3.835 13.12" stroke="#1B3C87" stroke-width="2"/>
    <path d="M128.215 92.715c.78.085 1.26 1.55 1.075 3.28-.185 1.725-.97 3.055-1.75 2.97-.78-.085-1.265-1.55-1.08-3.28.19-1.725.975-3.055 1.755-2.97z" fill="#1B3C87"/>
    <path d="M115.72 97.135c-.62 2.67-2.34 5.725-4.39 7.345m12.235 6.44a2.838 2.838 0 11.004 5.676 2.838 2.838 0 01-.004-5.676z" stroke="#1B3C87" stroke-width="2"/>
    <path d="M142.88 93.91c-2.48-2.415-17.045-13.315-34.545-6.555-2.275-2.31-8.48-11.61-3.12-15.615 5.355-4.01 7.59.835 8.285 2.765-1.615-5.09-.705-18.77 12.915-18.92 13.625-.15 28.27 39.65 27.68 46.795-.59 7.14-.62 8.105-9.63 3.495-1.715-.12-6.635-7.14-1.585-11.965z" fill="#FB5D64"/>
    <path d="M143.875 74.095c5.15 10.68 8.555 22.11 8.26 25.625-.59 7.145-.62 8.11-9.63 3.5-1.71-.125-6.63-7.145-1.585-11.97-1.96-1.905-11.49-9.135-24.055-8.715m-10.49 2.165c-2.27-2.315-8.475-11.61-3.12-15.62 5.355-4.005 7.595.84 8.29 2.765-1.62-5.085-.71-18.765 12.915-18.92 3.42-.035 6.905 2.445 10.195 6.295" stroke="#1B3C87" stroke-width="2"/>
    <path d="M146.815 103.025a6.242 6.242 0 016.24 6.24c0 3.45-2.795 6.24-6.24 6.24-3.45 0-6.24-2.79-6.24-6.24 0-3.445 2.79-6.24 6.24-6.24z" fill="#fff"/>
    <path d="M143.64 102.75a6.244 6.244 0 018.28 3.065 6.237 6.237 0 01-3.065 8.275 6.225 6.225 0 01-5.555-.17" stroke="#1B3C87" stroke-width="2"/>
  </g>
  <defs>
    <clipPath id="clip0">
      <path fill="#fff" d="M0 0h320v320H0z"/>
    </clipPath>
  </defs>
</svg>