<svg xmlns="http://www.w3.org/2000/svg" xmlns:xlink="http://www.w3.org/1999/xlink" viewBox="0 0 640 640">
  <defs>
    <path d="M584.83 143.45c0-24.38-19.77-44.14-44.14-44.14H408.28c-24.38 0-44.14 19.76-44.14 44.14v132.41c0 24.38 19.76 44.14 44.14 44.14h132.41c24.37 0 44.14-19.76 44.14-44.14V143.45z" id="a"/>
    <path d="M275.86 540.69v-88.28c0-24.37-19.76-44.13-44.14-44.13h-88.27c-24.38 0-44.14 19.76-44.14 44.13v88.28c0 24.37 19.76 44.14 44.14 44.14h88.27c29.43-13.18 44.14-27.89 44.14-44.14z" id="b"/>
    <path d="M540.69 286.9c30.42 0 55.17-24.75 55.17-55.18V99.31c0-30.42-24.75-55.17-55.17-55.17H408.28c-30.43 0-55.18 24.75-55.18 55.17v132.41c0 30.43 24.75 55.18 55.18 55.18h132.41zM408.28 66.21h132.41c18.25 0 33.1 14.85 33.1 33.1v132.41c0 18.26-14.85 33.11-33.1 33.11H408.28c-18.26 0-33.11-14.85-33.11-33.11V99.31c9.9-22.07 20.94-33.1 33.11-33.1z" id="c"/>
    <path d="M286.9 496.55v-88.27c0-30.43-24.75-55.18-55.18-55.18h-88.27c-30.42 0-55.17 24.75-55.17 55.18v88.27c0 30.42 24.75 55.17 55.17 55.17h88.27c36.79-16.5 55.18-34.89 55.18-55.17zm-176.56-88.27c0-18.26 14.86-33.11 33.11-33.11h88.27c18.26 0 33.11 14.85 33.11 33.11v88.27c0 18.25-14.85 33.11-33.11 33.11h-88.27c-18.25 0-33.11-14.86-33.11-33.11v-88.27z" id="d"/>
    <path d="M408.28 353.1c-30.43 0-55.18 24.75-55.18 55.18v176.55c0 30.42 24.75 55.17 55.18 55.17h176.55c30.42 0 55.17-24.75 55.17-55.17V408.28c0-30.43-24.75-55.18-55.17-55.18H408.28zm176.55 264.83H408.28c-18.26 0-33.11-14.85-33.11-33.1V408.28c0-18.26 14.85-33.11 33.11-33.11h176.55c18.25 0 33.1 14.85 33.1 33.11v176.55c-9.9 22.07-20.94 33.1-33.1 33.1z" id="e"/>
    <path d="M231.72 286.9c30.43 0 55.18-24.75 55.18-55.18V55.17C286.9 24.75 262.15 0 231.72 0H55.17C24.75 0 0 24.75 0 55.17v176.55c0 30.43 24.75 55.18 55.17 55.18h176.55zM55.17 22.07h176.55c18.26 0 33.11 14.85 33.11 33.1v176.55c0 18.26-14.85 33.11-33.11 33.11H55.17c-18.25 0-33.1-14.85-33.1-33.11V55.17c9.9-22.07 20.94-33.1 33.1-33.1z" id="f"/>
    <path d="M110.34 231.72c0-6.1-4.93-11.03-11.03-11.03-30.82 0-32.96-30.08-33.1-33.1v-44.14c0-6.1-4.94-11.04-11.04-11.04-6.1 0-11.03 4.94-11.03 11.04v44.48c0 18.97 12.88 54.83 55.17 54.83 6.1 0 11.03-4.93 11.03-11.04z" id="g"/>
    <path d="M496.15 110.34c3.43 0 33.51 2.3 33.51 33.11 0 6.1 4.93 11.03 11.03 11.03s11.03-4.93 11.03-11.03c0-42.29-35.86-54.58-55.17-55.17h-44.14c-6.1 0-11.03 4.93-11.03 11.03s4.93 11.03 11.03 11.03h43.74z" id="h"/>
    <path d="M573.79 496.55v44.14c0 10.49-2.82 18.58-8.38 24.04-9.42 9.24-24.23 9.02-24.72 9.06h-44.14c-6.1 0-11.03 4.94-11.03 11.04 0 6.1 4.93 11.03 11.03 11.03h44.47c4.06 0 24.74-.73 39.66-15.18 10.06-9.78 15.18-23.23 15.18-39.99v-44.14c0-6.1-4.93-11.03-11.03-11.03s-11.04 4.93-11.04 11.03z" id="i"/>
    <path d="M397.24 452.44c0 6.05 4.9 11.01 10.97 11.01h.07c6.04 0 10.96-4.91 11.03-10.96.07-5.54 1.95-33.18 33.1-33.18 6.11 0 11.04-4.93 11.04-11.03 0-6.11-4.93-11.03-11.04-11.03-43.64 0-55.17 36.1-55.17 55.19z" id="j"/>
  </defs>
  <use xlink:href="#a" fill="#fb5d64"/>
  <use xlink:href="#a" fill-opacity="0" stroke="#000" stroke-opacity="0"/>
  <use xlink:href="#b" fill="#fb5d64"/>
  <use xlink:href="#b" fill-opacity="0" stroke="#000" stroke-opacity="0"/>
  <use xlink:href="#c" fill="#1a202c"/>
  <use xlink:href="#c" fill-opacity="0" stroke="#000" stroke-opacity="0"/>
  <use xlink:href="#d" fill="#1a202c"/>
  <use xlink:href="#d" fill-opacity="0" stroke="#000" stroke-opacity="0"/>
  <use xlink:href="#e" fill="#1a202c"/>
  <use xlink:href="#e" fill-opacity="0" stroke="#000" stroke-opacity="0"/>
  <use xlink:href="#f" fill="#1a202c"/>
  <use xlink:href="#f" fill-opacity="0" stroke="#000" stroke-opacity="0"/>
  <use xlink:href="#g" fill="#1a202c"/>
  <use xlink:href="#g" fill-opacity="0" stroke="#000" stroke-opacity="0"/>
  <use xlink:href="#h" fill="#1a202c"/>
  <use xlink:href="#h" fill-opacity="0" stroke="#000" stroke-opacity="0"/>
  <g>
    <use xlink:href="#i" fill="#1a202c"/>
    <use xlink:href="#i" fill-opacity="0" stroke="#000" stroke-opacity="0"/>
  </g>
  <g>
    <use xlink:href="#j" fill="#1a202c"/>
    <use xlink:href="#j" fill-opacity="0" stroke="#000" stroke-opacity="0"/>
  </g>
</svg>